<svg width="500" height="500" viewBox="0 0 500 500" fill="none" xmlns="http://www.w3.org/2000/svg">
<rect width="500" height="500" fill="url(#paint0_linear_9_19)"/>
<path d="M138.172 182.969C138.172 163.639 153.842 147.969 173.172 147.969H366.531C385.861 147.969 401.531 163.639 401.531 182.969V365.198C401.531 384.528 385.861 400.198 366.531 400.198H173.172C153.842 400.198 138.172 384.528 138.172 365.198V182.969Z" fill="white"/>
<path d="M401.823 258.177L373.536 286.464L357.052 269.974L401.823 225.203V222.333L419.25 204.911L408.693 194.354L362.297 240.745L345.813 224.26L401.823 168.25V162.823H383.266L350.307 195.781L333.818 179.292L363.729 149.385L337.677 123.328V98.6771H313.026L295.599 81.2552L278.177 98.6771H222.318L204.891 81.2552L187.464 98.6771H162.818V123.323L123.323 162.823H98.6771V187.469L81.25 204.896L98.6771 222.323V276.927L144.292 231.307L160.781 247.792L97.099 311.469L98.6771 313.042V334.255L156.469 276.458L172.953 292.943L125.771 340.141L137.76 352.13L167.708 322.172L184.198 338.656L154.245 368.615L162.818 377.188V401.833H187.464L204.891 419.26L222.318 401.833H278.172L295.599 419.26L313.021 401.833H337.672V377.188L377.172 337.693H401.813V313.047L419.24 295.62L401.813 278.193V258.177H401.823Z" fill="#001217"/>
<path d="M194.63 293.1C174.79 293.1 158.463 290.31 145.65 284.73C133.043 278.943 123.95 271.4 118.37 262.1C112.997 252.593 111.137 242.57 112.79 232.03C112.997 230.377 113.72 228.93 114.96 227.69C116.407 226.243 118.06 225.52 119.92 225.52H153.71C156.397 225.52 158.36 226.14 159.6 227.38C160.84 228.413 161.977 229.757 163.01 231.41C163.63 234.923 165.18 238.333 167.66 241.64C170.347 244.947 174.17 247.737 179.13 250.01C184.09 252.077 190.393 253.11 198.04 253.11C211.68 253.11 222.427 250.94 230.28 246.6C238.133 242.26 242.887 236.37 244.54 228.93C245.78 223.557 244.953 219.217 242.06 215.91C239.167 212.603 234 209.607 226.56 206.92C219.327 204.233 209.717 201.34 197.73 198.24C182.85 194.933 170.657 190.387 161.15 184.6C151.643 178.607 145.03 171.167 141.31 162.28C137.797 153.393 137.383 142.75 140.07 130.35C143.997 111.75 153.917 97.0767 169.83 86.33C185.743 75.3767 206.41 69.9 231.83 69.9C245.057 69.9 256.63 71.76 266.55 75.48C276.677 79.2 285.047 84.0567 291.66 90.05C298.48 96.0433 303.337 102.45 306.23 109.27C309.123 116.09 310.053 122.703 309.02 129.11C308.813 130.763 307.987 132.313 306.54 133.76C305.3 135 303.75 135.62 301.89 135.62H266.55C264.483 135.62 262.727 135.207 261.28 134.38C259.833 133.553 258.697 132.107 257.87 130.04C257.87 124.667 255.183 120.017 249.81 116.09C244.643 111.957 237.617 109.89 228.73 109.89C218.603 109.89 210.027 111.75 203 115.47C195.973 119.19 191.53 124.873 189.67 132.52C188.637 137.48 189.257 141.717 191.53 145.23C194.01 148.537 198.453 151.533 204.86 154.22C211.473 156.7 220.463 159.49 231.83 162.59C249.19 166.31 262.933 171.063 273.06 176.85C283.187 182.637 290.007 189.87 293.52 198.55C297.24 207.23 297.757 217.77 295.07 230.17C290.73 250.837 279.983 266.543 262.83 277.29C245.677 287.83 222.943 293.1 194.63 293.1Z" fill="white"/>
<path d="M194.63 293.1C174.79 293.1 158.463 290.31 145.65 284.73C133.043 278.943 123.95 271.4 118.37 262.1C112.997 252.593 111.137 242.57 112.79 232.03C112.997 230.377 113.72 228.93 114.96 227.69C116.407 226.243 118.06 225.52 119.92 225.52H153.71C156.397 225.52 158.36 226.14 159.6 227.38C160.84 228.413 161.977 229.757 163.01 231.41C163.63 234.923 165.18 238.333 167.66 241.64C170.347 244.947 174.17 247.737 179.13 250.01C184.09 252.077 190.393 253.11 198.04 253.11C211.68 253.11 222.427 250.94 230.28 246.6C238.133 242.26 242.887 236.37 244.54 228.93C245.78 223.557 244.953 219.217 242.06 215.91C239.167 212.603 234 209.607 226.56 206.92C219.327 204.233 209.717 201.34 197.73 198.24C182.85 194.933 170.657 190.387 161.15 184.6C151.643 178.607 145.03 171.167 141.31 162.28C137.797 153.393 137.383 142.75 140.07 130.35C143.997 111.75 153.917 97.0767 169.83 86.33C185.743 75.3767 206.41 69.9 231.83 69.9C245.057 69.9 256.63 71.76 266.55 75.48C276.677 79.2 285.047 84.0567 291.66 90.05C298.48 96.0433 303.337 102.45 306.23 109.27C309.123 116.09 310.053 122.703 309.02 129.11C308.813 130.763 307.987 132.313 306.54 133.76C305.3 135 303.75 135.62 301.89 135.62H266.55C264.483 135.62 262.727 135.207 261.28 134.38C259.833 133.553 258.697 132.107 257.87 130.04C257.87 124.667 255.183 120.017 249.81 116.09C244.643 111.957 237.617 109.89 228.73 109.89C218.603 109.89 210.027 111.75 203 115.47C195.973 119.19 191.53 124.873 189.67 132.52C188.637 137.48 189.257 141.717 191.53 145.23C194.01 148.537 198.453 151.533 204.86 154.22C211.473 156.7 220.463 159.49 231.83 162.59C249.19 166.31 262.933 171.063 273.06 176.85C283.187 182.637 290.007 189.87 293.52 198.55C297.24 207.23 297.757 217.77 295.07 230.17C290.73 250.837 279.983 266.543 262.83 277.29C245.677 287.83 222.943 293.1 194.63 293.1Z" fill="url(#paint1_linear_9_19)"/>
<defs>
<linearGradient id="paint0_linear_9_19" x1="7.58815e-06" y1="14" x2="500" y2="500" gradientUnits="userSpaceOnUse">
<stop stop-color="#00FF87"/>
<stop offset="1" stop-color="#00D1FF" stop-opacity="0.82"/>
</linearGradient>
<linearGradient id="paint1_linear_9_19" x1="53" y1="62" x2="441" y2="396" gradientUnits="userSpaceOnUse">
<stop stop-color="#00FF87"/>
<stop offset="1" stop-color="#00D1FF" stop-opacity="0.82"/>
</linearGradient>
</defs>
</svg>
